<svg width="16" height="16" viewBox="0 0 16 16" fill="none" xmlns="http://www.w3.org/2000/svg">
<path d="M12.1384 11.1952C12.3988 11.4556 12.3988 11.8777 12.1384 12.138C11.8781 12.3984 11.4559 12.3984 11.1956 12.138L8.00035 8.94284L4.8052 12.138C4.54485 12.3984 4.12274 12.3984 3.86239 12.138C3.60204 11.8777 3.60204 11.4556 3.86238 11.1952L7.05753 8.00004L3.86226 4.80481C3.6019 4.54446 3.6019 4.12236 3.86226 3.86201C4.12261 3.60166 4.54472 3.60166 4.80507 3.86201L8.00033 7.05722L11.1955 3.86202C11.4558 3.60167 11.8779 3.60167 12.1383 3.86201C12.3986 4.12236 12.3986 4.54447 12.1383 4.80482L8.94315 8.00002L12.1384 11.1952Z" fill="white"/>
</svg>
