<svg width="18" height="18" viewBox="0 0 18 18" fill="none" xmlns="http://www.w3.org/2000/svg">
<path d="M15 15V15.75H15.75V15H15ZM11.7802 10.7198C11.6388 10.5831 11.4493 10.5075 11.2527 10.5092C11.0561 10.511 10.8679 10.5898 10.7289 10.7289C10.5898 10.8679 10.511 11.0561 10.5092 11.2527C10.5075 11.4493 10.5831 11.6388 10.7198 11.7802L11.7802 10.7198ZM14.25 10.5V15H15.75V10.5H14.25ZM15 14.25H10.5V15.75H15V14.25ZM15.5303 14.4697L11.7802 10.7198L10.7198 11.7802L14.4697 15.5303L15.5303 14.4697ZM3 15H2.25V15.75H3V15ZM7.28025 11.7802C7.41687 11.6388 7.49246 11.4493 7.49076 11.2527C7.48905 11.0561 7.41017 10.8679 7.27111 10.7289C7.13206 10.5898 6.94395 10.511 6.7473 10.5092C6.55065 10.5075 6.3612 10.5831 6.21975 10.7198L7.28025 11.7802ZM2.25 10.5V15H3.75V10.5H2.25ZM3 15.75H7.5V14.25H3V15.75ZM3.53025 15.5303L7.28025 11.7802L6.21975 10.7198L2.46975 14.4697L3.53025 15.5303ZM15 3H15.75V2.25H15V3ZM10.7198 6.21975C10.5831 6.3612 10.5075 6.55065 10.5092 6.7473C10.511 6.94395 10.5898 7.13206 10.7289 7.27111C10.8679 7.41017 11.0561 7.48905 11.2527 7.49076C11.4493 7.49246 11.6388 7.41687 11.7802 7.28025L10.7198 6.21975ZM15.75 7.5V3H14.25V7.5H15.75ZM15 2.25H10.5V3.75H15V2.25ZM14.4697 2.46975L10.7198 6.21975L11.7802 7.28025L15.5303 3.53025L14.4697 2.46975ZM3 3V2.25H2.25V3H3ZM6.21975 7.28025C6.3612 7.41687 6.55065 7.49246 6.7473 7.49076C6.94395 7.48905 7.13206 7.41017 7.27111 7.27111C7.41017 7.13206 7.48905 6.94395 7.49076 6.7473C7.49246 6.55065 7.41687 6.3612 7.28025 6.21975L6.21975 7.28025ZM3.75 7.5V3H2.25V7.5H3.75ZM3 3.75H7.5V2.25H3V3.75ZM2.46975 3.53025L6.21975 7.28025L7.28025 6.21975L3.53025 2.46975L2.46975 3.53025Z" fill="#434343"/>
</svg>
