<svg width="167" height="36" viewBox="0 0 167 36" fill="none" xmlns="http://www.w3.org/2000/svg">
<path d="M0.272249 30L7.88025 13.2H10.2562L17.8883 30H15.3682L8.57625 14.544H9.53625L2.74425 30H0.272249ZM3.51225 25.8L4.16025 23.88H13.6162L14.3123 25.8H3.51225ZM19.5784 30V17.28H21.7864V20.736L21.5704 19.872C21.9224 18.992 22.5144 18.32 23.3464 17.856C24.1784 17.392 25.2024 17.16 26.4184 17.16V19.392C26.3224 19.376 26.2264 19.368 26.1304 19.368C26.0504 19.368 25.9704 19.368 25.8904 19.368C24.6584 19.368 23.6824 19.736 22.9624 20.472C22.2424 21.208 21.8824 22.272 21.8824 23.664V30H19.5784ZM34.3249 30.144C32.9649 30.144 31.7649 29.864 30.7249 29.304C29.7009 28.744 28.9009 27.976 28.3249 27C27.7649 26.024 27.4849 24.904 27.4849 23.64C27.4849 22.376 27.7569 21.256 28.3009 20.28C28.8609 19.304 29.6209 18.544 30.5809 18C31.5569 17.44 32.6529 17.16 33.8689 17.16C35.1009 17.16 36.1889 17.432 37.1329 17.976C38.0769 18.52 38.8129 19.288 39.3409 20.28C39.8849 21.256 40.1569 22.4 40.1569 23.712C40.1569 23.808 40.1489 23.92 40.1329 24.048C40.1329 24.176 40.1249 24.296 40.1089 24.408H29.2849V22.752H38.9089L37.9729 23.328C37.9889 22.512 37.8209 21.784 37.4689 21.144C37.1169 20.504 36.6289 20.008 36.0049 19.656C35.3969 19.288 34.6849 19.104 33.8689 19.104C33.0689 19.104 32.3569 19.288 31.7329 19.656C31.1089 20.008 30.6209 20.512 30.2689 21.168C29.9169 21.808 29.7409 22.544 29.7409 23.376V23.76C29.7409 24.608 29.9329 25.368 30.3169 26.04C30.7169 26.696 31.2689 27.208 31.9729 27.576C32.6769 27.944 33.4849 28.128 34.3969 28.128C35.1489 28.128 35.8289 28 36.4369 27.744C37.0609 27.488 37.6049 27.104 38.0689 26.592L39.3409 28.08C38.7649 28.752 38.0449 29.264 37.1809 29.616C36.3329 29.968 35.3809 30.144 34.3249 30.144ZM49.3935 34.8C48.7855 34.8 48.1935 34.696 47.6175 34.488C47.0415 34.296 46.5455 34.008 46.1295 33.624L47.1135 31.896C47.4335 32.2 47.7855 32.432 48.1695 32.592C48.5535 32.752 48.9615 32.832 49.3935 32.832C49.9535 32.832 50.4175 32.688 50.7855 32.4C51.1535 32.112 51.4975 31.6 51.8175 30.864L52.6095 29.112L52.8495 28.824L57.8415 17.28H60.0975L53.9295 31.272C53.5615 32.168 53.1455 32.872 52.6815 33.384C52.2335 33.896 51.7375 34.256 51.1935 34.464C50.6495 34.688 50.0495 34.8 49.3935 34.8ZM52.4175 30.408L46.6095 17.28H49.0095L53.9535 28.608L52.4175 30.408ZM66.8642 30.144C65.5842 30.144 64.4482 29.864 63.4562 29.304C62.4642 28.744 61.6802 27.976 61.1042 27C60.5282 26.008 60.2402 24.888 60.2402 23.64C60.2402 22.376 60.5282 21.256 61.1042 20.28C61.6802 19.304 62.4642 18.544 63.4562 18C64.4482 17.44 65.5842 17.16 66.8642 17.16C68.1282 17.16 69.2562 17.44 70.2482 18C71.2562 18.544 72.0402 19.304 72.6002 20.28C73.1762 21.24 73.4642 22.36 73.4642 23.64C73.4642 24.904 73.1762 26.024 72.6002 27C72.0402 27.976 71.2562 28.744 70.2482 29.304C69.2562 29.864 68.1282 30.144 66.8642 30.144ZM66.8642 28.128C67.6802 28.128 68.4082 27.944 69.0482 27.576C69.7042 27.208 70.2162 26.688 70.5842 26.016C70.9522 25.328 71.1362 24.536 71.1362 23.64C71.1362 22.728 70.9522 21.944 70.5842 21.288C70.2162 20.616 69.7042 20.096 69.0482 19.728C68.4082 19.36 67.6802 19.176 66.8642 19.176C66.0482 19.176 65.3202 19.36 64.6802 19.728C64.0402 20.096 63.5282 20.616 63.1442 21.288C62.7602 21.944 62.5682 22.728 62.5682 23.64C62.5682 24.536 62.7602 25.328 63.1442 26.016C63.5282 26.688 64.0402 27.208 64.6802 27.576C65.3202 27.944 66.0482 28.128 66.8642 28.128ZM81.5226 30.144C80.4346 30.144 79.4746 29.944 78.6426 29.544C77.8266 29.144 77.1866 28.536 76.7226 27.72C76.2746 26.888 76.0506 25.848 76.0506 24.6V17.28H78.3546V24.336C78.3546 25.584 78.6506 26.52 79.2426 27.144C79.8506 27.768 80.6986 28.08 81.7866 28.08C82.5866 28.08 83.2826 27.92 83.8746 27.6C84.4666 27.264 84.9226 26.784 85.2426 26.16C85.5626 25.52 85.7226 24.752 85.7226 23.856V17.28H88.0266V30H85.8426V26.568L86.2026 27.48C85.7866 28.328 85.1626 28.984 84.3306 29.448C83.4986 29.912 82.5626 30.144 81.5226 30.144ZM110.282 13.2H112.682V30H110.282V13.2ZM100.634 30H98.2341V13.2H100.634V30ZM110.498 22.512H100.394V20.424H110.498V22.512ZM122.559 30.144C121.199 30.144 119.999 29.864 118.959 29.304C117.935 28.744 117.135 27.976 116.559 27C115.999 26.024 115.719 24.904 115.719 23.64C115.719 22.376 115.991 21.256 116.535 20.28C117.095 19.304 117.855 18.544 118.815 18C119.791 17.44 120.887 17.16 122.103 17.16C123.335 17.16 124.423 17.432 125.367 17.976C126.311 18.52 127.047 19.288 127.575 20.28C128.119 21.256 128.391 22.4 128.391 23.712C128.391 23.808 128.383 23.92 128.367 24.048C128.367 24.176 128.359 24.296 128.343 24.408H117.519V22.752H127.143L126.207 23.328C126.223 22.512 126.055 21.784 125.703 21.144C125.351 20.504 124.863 20.008 124.239 19.656C123.631 19.288 122.919 19.104 122.103 19.104C121.303 19.104 120.591 19.288 119.967 19.656C119.343 20.008 118.855 20.512 118.503 21.168C118.151 21.808 117.975 22.544 117.975 23.376V23.76C117.975 24.608 118.167 25.368 118.551 26.04C118.951 26.696 119.503 27.208 120.207 27.576C120.911 27.944 121.719 28.128 122.631 28.128C123.383 28.128 124.063 28 124.671 27.744C125.295 27.488 125.839 27.104 126.303 26.592L127.575 28.08C126.999 28.752 126.279 29.264 125.415 29.616C124.567 29.968 123.615 30.144 122.559 30.144ZM131.11 30V17.28H133.318V20.736L133.102 19.872C133.454 18.992 134.046 18.32 134.878 17.856C135.71 17.392 136.734 17.16 137.95 17.16V19.392C137.854 19.376 137.758 19.368 137.662 19.368C137.582 19.368 137.502 19.368 137.422 19.368C136.19 19.368 135.214 19.736 134.494 20.472C133.774 21.208 133.414 22.272 133.414 23.664V30H131.11ZM145.856 30.144C144.496 30.144 143.296 29.864 142.256 29.304C141.232 28.744 140.432 27.976 139.856 27C139.296 26.024 139.016 24.904 139.016 23.64C139.016 22.376 139.288 21.256 139.832 20.28C140.392 19.304 141.152 18.544 142.112 18C143.088 17.44 144.184 17.16 145.4 17.16C146.632 17.16 147.72 17.432 148.664 17.976C149.608 18.52 150.344 19.288 150.872 20.28C151.416 21.256 151.688 22.4 151.688 23.712C151.688 23.808 151.68 23.92 151.664 24.048C151.664 24.176 151.656 24.296 151.64 24.408H140.816V22.752H150.44L149.504 23.328C149.52 22.512 149.352 21.784 149 21.144C148.648 20.504 148.16 20.008 147.536 19.656C146.928 19.288 146.216 19.104 145.4 19.104C144.6 19.104 143.888 19.288 143.264 19.656C142.64 20.008 142.152 20.512 141.8 21.168C141.448 21.808 141.272 22.544 141.272 23.376V23.76C141.272 24.608 141.464 25.368 141.848 26.04C142.248 26.696 142.8 27.208 143.504 27.576C144.208 27.944 145.016 28.128 145.928 28.128C146.68 28.128 147.36 28 147.968 27.744C148.592 27.488 149.136 27.104 149.6 26.592L150.872 28.08C150.296 28.752 149.576 29.264 148.712 29.616C147.864 29.968 146.912 30.144 145.856 30.144Z" fill="black"/>
<path d="M154 18V6.5C154 2.91015 156.91 -2.38418e-07 160.5 -2.38418e-07C164.09 -2.38418e-07 167 2.91015 167 6.5V9C167 13.9706 162.971 18 158 18H154Z" fill="#3479FF"/>
</svg>
