<svg width="20" height="20" viewBox="0 0 20 20" fill="none" xmlns="http://www.w3.org/2000/svg">
<path d="M11.9668 11.8582C11.4097 12.3073 10.7157 12.5522 10.0001 12.5522C9.28451 12.5522 8.59049 12.3073 8.03342 11.8582C7.86324 11.7167 7.64384 11.6487 7.42348 11.669C7.20313 11.6893 6.99987 11.7963 6.85842 11.9665C6.71697 12.1367 6.64892 12.3561 6.66923 12.5764C6.68955 12.7968 6.79657 13.0001 6.96675 13.1415C7.81787 13.852 8.89139 14.2412 10.0001 14.2412C11.1088 14.2412 12.1823 13.852 13.0334 13.1415C13.2036 13.0001 13.3106 12.7968 13.3309 12.5764C13.3513 12.3561 13.2832 12.1367 13.1418 11.9665C13.0717 11.8822 12.9858 11.8126 12.8888 11.7615C12.7919 11.7105 12.6858 11.679 12.5767 11.669C12.3563 11.6487 12.1369 11.7167 11.9668 11.8582ZM7.50008 9.1665C7.6649 9.1665 7.82602 9.11763 7.96306 9.02606C8.1001 8.93449 8.20691 8.80435 8.26998 8.65207C8.33306 8.4998 8.34956 8.33225 8.31741 8.1706C8.28525 8.00894 8.20588 7.86046 8.08934 7.74392C7.9728 7.62737 7.82431 7.548 7.66266 7.51585C7.50101 7.4837 7.33345 7.5002 7.18118 7.56327C7.02891 7.62634 6.89876 7.73315 6.80719 7.8702C6.71563 8.00724 6.66675 8.16835 6.66675 8.33317C6.66675 8.55418 6.75455 8.76615 6.91083 8.92243C7.06711 9.07871 7.27907 9.1665 7.50008 9.1665ZM12.5001 7.49984C12.3353 7.49984 12.1742 7.54871 12.0371 7.64028C11.9001 7.73185 11.7933 7.862 11.7302 8.01427C11.6671 8.16654 11.6506 8.3341 11.6828 8.49575C11.7149 8.6574 11.7943 8.80588 11.9108 8.92243C12.0274 9.03897 12.1759 9.11834 12.3375 9.15049C12.4992 9.18265 12.6667 9.16614 12.819 9.10307C12.9713 9.04 13.1014 8.93319 13.193 8.79615C13.2845 8.65911 13.3334 8.49799 13.3334 8.33317C13.3334 8.11216 13.2456 7.9002 13.0893 7.74392C12.9331 7.58764 12.7211 7.49984 12.5001 7.49984ZM10.0001 1.6665C8.35191 1.6665 6.74074 2.15525 5.37033 3.07092C3.99992 3.9866 2.93182 5.28809 2.30109 6.81081C1.67036 8.33353 1.50533 10.0091 1.82687 11.6256C2.14842 13.2421 2.94209 14.727 4.10753 15.8924C5.27297 17.0578 6.75782 17.8515 8.37433 18.173C9.99084 18.4946 11.6664 18.3296 13.1891 17.6988C14.7118 17.0681 16.0133 16 16.929 14.6296C17.8447 13.2592 18.3334 11.648 18.3334 9.99984C18.3334 8.90549 18.1179 7.82186 17.6991 6.81081C17.2803 5.79976 16.6665 4.8811 15.8926 4.10728C15.1188 3.33346 14.2002 2.71963 13.1891 2.30084C12.1781 1.88205 11.0944 1.6665 10.0001 1.6665ZM10.0001 16.6665C8.68154 16.6665 7.39261 16.2755 6.29628 15.543C5.19996 14.8104 4.34547 13.7692 3.84089 12.5511C3.3363 11.3329 3.20428 9.99244 3.46152 8.69924C3.71875 7.40603 4.35369 6.21814 5.28604 5.28579C6.21839 4.35344 7.40628 3.7185 8.69948 3.46127C9.99269 3.20403 11.3331 3.33606 12.5513 3.84064C13.7695 4.34522 14.8107 5.19971 15.5432 6.29604C16.2758 7.39236 16.6668 8.6813 16.6668 9.99984C16.6668 11.7679 15.9644 13.4636 14.7141 14.7139C13.4639 15.9641 11.7682 16.6665 10.0001 16.6665Z" fill="#434343"/>
</svg>
