<svg width="20" height="20" viewBox="0 0 20 20" fill="none" xmlns="http://www.w3.org/2000/svg">
<path d="M5.83341 13.3335C6.06953 13.3335 6.26758 13.2535 6.42758 13.0935C6.58758 12.9335 6.6673 12.7357 6.66675 12.5002C6.66675 12.2641 6.58675 12.0663 6.42675 11.9068C6.26675 11.7474 6.06897 11.6674 5.83341 11.6668C5.5973 11.6668 5.39953 11.7468 5.24008 11.9068C5.08064 12.0668 5.00064 12.2646 5.00008 12.5002C5.00008 12.7363 5.08008 12.9343 5.24008 13.0943C5.40008 13.2543 5.59786 13.3341 5.83341 13.3335ZM5.00008 10.8335H6.66675V6.66683H5.00008V10.8335ZM8.33341 12.5002H15.0001V10.8335H8.33341V12.5002ZM8.33341 9.16683H15.0001V7.50016H8.33341V9.16683ZM3.33341 16.6668C2.87508 16.6668 2.48286 16.5038 2.15675 16.1777C1.83064 15.8516 1.6673 15.4591 1.66675 15.0002V5.00016C1.66675 4.54183 1.83008 4.14961 2.15675 3.8235C2.48341 3.49738 2.87564 3.33405 3.33341 3.3335H16.6667C17.1251 3.3335 17.5176 3.49683 17.8442 3.8235C18.1709 4.15016 18.334 4.54238 18.3334 5.00016V15.0002C18.3334 15.4585 18.1704 15.851 17.8442 16.1777C17.5181 16.5043 17.1256 16.6674 16.6667 16.6668H3.33341ZM3.33341 15.0002H16.6667V5.00016H3.33341V15.0002Z" fill="#434343"/>
</svg>
