<svg width="16" height="16" viewBox="0 0 16 16" fill="none" xmlns="http://www.w3.org/2000/svg">
<path d="M12.1379 11.1952C12.3983 11.4556 12.3983 11.8777 12.1379 12.138C11.8776 12.3984 11.4555 12.3984 11.1951 12.138L7.99986 8.94284L4.80471 12.138C4.54436 12.3984 4.12225 12.3984 3.8619 12.138C3.60155 11.8777 3.60155 11.4556 3.86189 11.1952L7.05704 8.00004L3.86177 4.80481C3.60142 4.54446 3.60142 4.12236 3.86177 3.86201C4.12212 3.60166 4.54423 3.60166 4.80458 3.86201L7.99984 7.05722L11.195 3.86202C11.4553 3.60167 11.8774 3.60167 12.1378 3.86201C12.3981 4.12236 12.3982 4.54447 12.1378 4.80482L8.94266 8.00002L12.1379 11.1952Z" fill="#F34648"/>
</svg>
