<svg width="34" height="34" viewBox="0 0 34 34" fill="none" xmlns="http://www.w3.org/2000/svg">
<rect width="34" height="34" rx="8" fill="#F1F2FF"/>
<path fill-rule="evenodd" clip-rule="evenodd" d="M19.2918 11.9583C19.2918 14.2364 17.445 16.0833 15.1668 16.0833C12.8887 16.0833 11.0418 14.2364 11.0418 11.9583C11.0418 9.68008 12.8887 7.83325 15.1668 7.83325C17.445 7.83325 19.2918 9.68008 19.2918 11.9583ZM17.4585 11.9583C17.4585 13.2239 16.4325 14.2499 15.1668 14.2499C13.9012 14.2499 12.8752 13.2239 12.8752 11.9583C12.8752 10.6926 13.9012 9.66659 15.1668 9.66659C16.4325 9.66659 17.4585 10.6926 17.4585 11.9583Z" fill="#3479FF"/>
<path fill-rule="evenodd" clip-rule="evenodd" d="M7.8335 23.3461C7.8335 19.8412 10.6748 16.9999 14.1796 16.9999H16.154C19.6589 16.9999 22.5002 19.8412 22.5002 23.3461C22.5002 24.3975 21.6478 25.2499 20.5963 25.2499H9.73734C8.68588 25.2499 7.8335 24.3975 7.8335 23.3461ZM9.66683 23.3461C9.66683 20.8537 11.6873 18.8333 14.1796 18.8333H16.154C18.6464 18.8333 20.6668 20.8537 20.6668 23.3461C20.6668 23.385 20.6353 23.4166 20.5963 23.4166H9.73734C9.6984 23.4166 9.66683 23.385 9.66683 23.3461Z" fill="#3479FF"/>
<path d="M23.3433 24.4224C23.2485 24.7898 23.4878 25.2499 23.8672 25.2499H24.263C25.3145 25.2499 26.1668 24.3975 26.1668 23.3461C26.1668 19.8412 23.3256 16.9999 19.8207 16.9999C19.6903 16.9999 19.6428 17.181 19.7535 17.2499C20.6204 17.7895 21.3731 18.4954 21.9669 19.323C22.0071 19.3791 22.059 19.4259 22.1184 19.4612C23.4445 20.2472 24.3335 21.6928 24.3335 23.3461C24.3335 23.385 24.3019 23.4166 24.263 23.4166H23.8288C23.5988 23.4166 23.4168 23.6097 23.4168 23.8397C23.4168 24.0409 23.3913 24.2362 23.3433 24.4224Z" fill="#3479FF"/>
<path d="M19.6759 14.2161C19.7263 14.1155 19.8093 14.0354 19.9086 13.9826C20.6324 13.5974 21.1252 12.8354 21.1252 11.9583C21.1252 11.0811 20.6324 10.3191 19.9086 9.93392C19.8093 9.88108 19.7263 9.80096 19.6759 9.70043C19.4198 9.18993 19.0795 8.72895 18.6733 8.33567C18.4879 8.1562 18.5755 7.83325 18.8335 7.83325C21.1117 7.83325 22.9585 9.68008 22.9585 11.9583C22.9585 14.2364 21.1117 16.0833 18.8335 16.0833C18.5755 16.0833 18.4879 15.7603 18.6733 15.5808C19.0795 15.1876 19.4198 14.7266 19.6759 14.2161Z" fill="#3479FF"/>
</svg>
