<svg width="34" height="34" viewBox="0 0 34 34" fill="none" xmlns="http://www.w3.org/2000/svg">
<rect width="34" height="34" rx="8" fill="#F1F2FF"/>
<path fill-rule="evenodd" clip-rule="evenodd" d="M8.75 11.0417C8.75 9.77601 9.77601 8.75 11.0417 8.75H13.7917C15.0573 8.75 16.0833 9.77601 16.0833 11.0417V13.7917C16.0833 15.0573 15.0573 16.0833 13.7917 16.0833H11.0417C9.77601 16.0833 8.75 15.0573 8.75 13.7917V11.0417ZM11.0417 10.5833H13.7917C14.0448 10.5833 14.25 10.7885 14.25 11.0417V13.7917C14.25 14.0448 14.0448 14.25 13.7917 14.25H11.0417C10.7885 14.25 10.5833 14.0448 10.5833 13.7917V11.0417C10.5833 10.7885 10.7885 10.5833 11.0417 10.5833Z" fill="#3479FF"/>
<path fill-rule="evenodd" clip-rule="evenodd" d="M17.9167 11.0417C17.9167 9.77601 18.9427 8.75 20.2083 8.75H22.9583C24.224 8.75 25.25 9.77601 25.25 11.0417V13.7917C25.25 15.0573 24.224 16.0833 22.9583 16.0833H20.2083C18.9427 16.0833 17.9167 15.0573 17.9167 13.7917V11.0417ZM20.2083 10.5833H22.9583C23.2115 10.5833 23.4167 10.7885 23.4167 11.0417V13.7917C23.4167 14.0448 23.2115 14.25 22.9583 14.25H20.2083C19.9552 14.25 19.75 14.0448 19.75 13.7917V11.0417C19.75 10.7885 19.9552 10.5833 20.2083 10.5833Z" fill="#3479FF"/>
<path fill-rule="evenodd" clip-rule="evenodd" d="M20.2083 17.9167C18.9427 17.9167 17.9167 18.9427 17.9167 20.2083V22.9583C17.9167 24.224 18.9427 25.25 20.2083 25.25H22.9583C24.224 25.25 25.25 24.224 25.25 22.9583V20.2083C25.25 18.9427 24.224 17.9167 22.9583 17.9167H20.2083ZM22.9583 19.75H20.2083C19.9552 19.75 19.75 19.9552 19.75 20.2083V22.9583C19.75 23.2115 19.9552 23.4167 20.2083 23.4167H22.9583C23.2115 23.4167 23.4167 23.2115 23.4167 22.9583V20.2083C23.4167 19.9552 23.2115 19.75 22.9583 19.75Z" fill="#3479FF"/>
<path fill-rule="evenodd" clip-rule="evenodd" d="M8.75 20.2083C8.75 18.9427 9.77601 17.9167 11.0417 17.9167H13.7917C15.0573 17.9167 16.0833 18.9427 16.0833 20.2083V22.9583C16.0833 24.224 15.0573 25.25 13.7917 25.25H11.0417C9.77601 25.25 8.75 24.224 8.75 22.9583V20.2083ZM11.0417 19.75H13.7917C14.0448 19.75 14.25 19.9552 14.25 20.2083V22.9583C14.25 23.2115 14.0448 23.4167 13.7917 23.4167H11.0417C10.7885 23.4167 10.5833 23.2115 10.5833 22.9583V20.2083C10.5833 19.9552 10.7885 19.75 11.0417 19.75Z" fill="#3479FF"/>
</svg>
