<svg width="34" height="34" viewBox="0 0 34 34" fill="none" xmlns="http://www.w3.org/2000/svg">
<rect width="34" height="34" rx="8" fill="#6C94FF"/>
<path fill-rule="evenodd" clip-rule="evenodd" d="M26.6644 14.7526L17.6644 6.75259C17.2855 6.4158 16.7145 6.4158 16.3356 6.75259L7.33565 14.7526C6.92286 15.1195 6.88568 15.7516 7.2526 16.1644C7.57359 16.5255 8.0975 16.5991 8.5 16.3663V23C8.5 25.2091 10.2909 27 12.5 27H21.5C23.7091 27 25.5 25.2091 25.5 23V16.3662C25.9025 16.5991 26.4264 16.5255 26.7474 16.1644C27.1143 15.7516 27.0772 15.1195 26.6644 14.7526ZM23.5 14.6157L17 8.83796L10.5 14.6157V23C10.5 24.1046 11.3954 25 12.5 25H13V21C13 19.3431 14.3431 18 16 18H18C19.6569 18 21 19.3431 21 21V25H21.5C22.6046 25 23.5 24.1046 23.5 23V14.6157ZM19 25H15V21C15 20.4477 15.4477 20 16 20H18C18.5523 20 19 20.4477 19 21V25Z" fill="white"/>
</svg>
