<svg width="34" height="34" viewBox="0 0 34 34" fill="none" xmlns="http://www.w3.org/2000/svg">
<rect width="34" height="34" rx="8" fill="#6C94FF"/>
<path d="M14 12C13.4477 12 13 12.4477 13 13C13 13.5523 13.4477 14 14 14H16C16.5523 14 17 13.5523 17 13C17 12.4477 16.5523 12 16 12H14Z" fill="white"/>
<path d="M13 17C13 16.4477 13.4477 16 14 16H20C20.5523 16 21 16.4477 21 17C21 17.5523 20.5523 18 20 18H14C13.4477 18 13 17.5523 13 17Z" fill="white"/>
<path d="M14 20C13.4477 20 13 20.4477 13 21C13 21.5523 13.4477 22 14 22H20C20.5523 22 21 21.5523 21 21C21 20.4477 20.5523 20 20 20H14Z" fill="white"/>
<path fill-rule="evenodd" clip-rule="evenodd" d="M12 7C10.3431 7 9 8.34315 9 10V24C9 25.6569 10.3431 27 12 27H22C23.6569 27 25 25.6569 25 24V12.2426C25 11.447 24.6839 10.6839 24.1213 10.1213L21.8787 7.87868C21.3161 7.31607 20.553 7 19.7574 7H12ZM12 9H19V11.9C19 12.5075 19.4925 13 20.1 13H23V24C23 24.5523 22.5523 25 22 25H12C11.4477 25 11 24.5523 11 24V10C11 9.44772 11.4477 9 12 9ZM21 9.82843L22.1716 11H21V9.82843Z" fill="white"/>
</svg>
