<svg width="34" height="34" viewBox="0 0 34 34" fill="none" xmlns="http://www.w3.org/2000/svg">
<rect width="34" height="34" rx="8" fill="#F1F2FF"/>
<path fill-rule="evenodd" clip-rule="evenodd" d="M20.6664 16.9999C20.6664 19.025 19.0248 20.6666 16.9998 20.6666C14.9747 20.6666 13.3331 19.025 13.3331 16.9999C13.3331 14.9749 14.9747 13.3333 16.9998 13.3333C19.0248 13.3333 20.6664 14.9749 20.6664 16.9999ZM18.8331 16.9999C18.8331 18.0124 18.0123 18.8333 16.9998 18.8333C15.9872 18.8333 15.1664 18.0124 15.1664 16.9999C15.1664 15.9874 15.9872 15.1666 16.9998 15.1666C18.0123 15.1666 18.8331 15.9874 18.8331 16.9999Z" fill="#3479FF"/>
<path fill-rule="evenodd" clip-rule="evenodd" d="M9.2175 18.2964L9.81862 17.9353C9.77911 17.6291 9.75873 17.3169 9.75873 16.9999C9.75873 16.683 9.7791 16.3708 9.81861 16.0647L9.21875 15.7043C8.35085 15.1828 8.07003 14.0564 8.59152 13.1885L9.68484 11.3689C10.2063 10.501 11.3327 10.2202 12.2006 10.7417L12.8006 11.1023C13.2051 10.814 13.6405 10.5664 14.1008 10.3652V9.66659C14.1008 8.65406 14.9216 7.83325 15.9342 7.83325H18.057C19.0695 7.83325 19.8903 8.65406 19.8903 9.66659V10.3652C20.3507 10.5664 20.7861 10.8141 21.1906 11.1023L21.792 10.7409C22.6599 10.2194 23.7862 10.5002 24.3077 11.3681L25.401 13.1878C25.9225 14.0557 25.6417 15.182 24.7738 15.7035L24.1725 16.0647C24.212 16.3709 24.2324 16.683 24.2324 16.9999C24.2324 17.3169 24.212 17.629 24.1725 17.9352L24.7724 18.2956C25.6403 18.8171 25.9211 19.9434 25.3996 20.8113L24.3063 22.6309C23.7848 23.4988 22.6585 23.7797 21.7906 23.2582L21.1905 22.8976C20.786 23.1858 20.3507 23.4335 19.8903 23.6346V24.3333C19.8903 25.3458 19.0695 26.1666 18.057 26.1666H15.9342C14.9216 26.1666 14.1008 25.3458 14.1008 24.3333V23.6346C13.6405 23.4335 13.2051 23.1858 12.8007 22.8976L12.1993 23.259C11.3314 23.7805 10.2051 23.4997 9.68359 22.6318L8.59026 20.8122C8.06877 19.9442 8.3496 18.8179 9.2175 18.2964ZM14.8349 12.0452L15.9342 11.5649V9.66659L18.057 9.66659V11.5649L19.1563 12.0452C19.4993 12.1951 19.8243 12.3799 20.1267 12.5953L21.105 13.2925L22.7362 12.3124L23.8296 14.132L22.2009 15.1106L22.3543 16.2993C22.3838 16.5279 22.3991 16.7617 22.3991 16.9999C22.3991 17.2382 22.3838 17.472 22.3543 17.7006L22.2009 18.8893L23.8282 19.8671L22.7348 21.6867L21.105 20.7074L20.1266 21.4045C19.8243 21.62 19.4993 21.8047 19.1563 21.9546L18.057 22.4349V24.3333H15.9342V22.4349L14.8349 21.9546C14.4918 21.8047 14.1669 21.62 13.8646 21.4046L12.8862 20.7074L11.2551 21.6875L10.1617 19.8679L11.7903 18.8894L11.6369 17.7006C11.6074 17.472 11.5921 17.2382 11.5921 16.9999C11.5921 16.7616 11.6074 16.5279 11.6369 16.2993L11.7903 15.1105L10.163 14.1328L11.2563 12.3132L12.8861 13.2925L13.8645 12.5953C14.1668 12.3799 14.4918 12.1951 14.8349 12.0452Z" fill="#3479FF"/>
</svg>
