<svg width="34" height="34" viewBox="0 0 34 34" fill="none" xmlns="http://www.w3.org/2000/svg">
<rect width="34" height="34" rx="8" fill="#6C94FF"/>
<path d="M9 8C9.55228 8 10 8.44772 10 9V24H25C25.5523 24 26 24.4477 26 25C26 25.5523 25.5523 26 25 26H9C8.44772 26 8 25.5523 8 25V9C8 8.44772 8.44772 8 9 8Z" fill="white"/>
<path d="M24.832 13.5547C25.1384 13.0952 25.0142 12.4743 24.5547 12.1679C24.0952 11.8616 23.4743 11.9858 23.1679 12.4453L19.7543 17.5657L16.6 15.2C16.1407 14.8555 15.4864 14.9676 15.1679 15.4453L11.1679 21.4453C10.8616 21.9048 10.9858 22.5257 11.4453 22.832C11.9048 23.1384 12.5257 23.0142 12.832 22.5547L16.2457 17.4342L19.4 19.8C19.8593 20.1444 20.5136 20.0324 20.832 19.5547L24.832 13.5547Z" fill="white"/>
</svg>
