<?xml version="1.0" standalone="no"?>
<!DOCTYPE svg PUBLIC "-//W3C//DTD SVG 20010904//EN"
 "http://www.w3.org/TR/2001/REC-SVG-20010904/DTD/svg10.dtd">
<svg version="1.0" xmlns="http://www.w3.org/2000/svg"
 width="1152.000000pt" height="1152.000000pt" viewBox="0 0 1152.000000 1152.000000"
 preserveAspectRatio="xMidYMid meet">
<metadata>
Created by potrace 1.14, written by Peter Selinger 2001-2017
</metadata>
<g transform="translate(0.000000,1152.000000) scale(0.100000,-0.100000)"
fill="#000000" stroke="none">
<path d="M5518 11515 c-2 -2 -41 -6 -88 -9 -149 -11 -257 -23 -267 -29 -5 -3
-33 -8 -63 -11 -30 -3 -64 -8 -75 -10 -17 -4 -212 -45 -240 -51 -5 -1 -30 -7
-55 -14 -25 -7 -52 -15 -60 -16 -8 -2 -53 -15 -100 -30 -47 -14 -89 -27 -95
-28 -38 -11 -65 -20 -95 -32 -19 -7 -62 -23 -95 -35 -33 -12 -79 -31 -102 -41
-24 -11 -45 -19 -48 -19 -8 0 -144 -64 -250 -117 -82 -41 -253 -136 -310 -173
-13 -8 -45 -28 -72 -44 -26 -16 -50 -32 -53 -35 -3 -4 -18 -15 -35 -25 -31
-20 -256 -186 -265 -196 -3 -3 -30 -25 -60 -50 -140 -116 -368 -341 -485 -480
-44 -52 -84 -100 -90 -106 -5 -6 -19 -23 -30 -38 -29 -39 -132 -177 -150 -201
-8 -10 -15 -25 -15 -32 0 -7 -4 -13 -10 -13 -5 0 -17 -14 -26 -32 -9 -17 -20
-36 -25 -42 -18 -22 -69 -101 -69 -108 0 -4 -15 -31 -33 -60 -18 -29 -39 -66
-47 -83 -8 -16 -17 -32 -20 -35 -10 -9 -160 -323 -160 -335 0 -3 -9 -24 -19
-48 -18 -41 -32 -77 -33 -87 0 -3 -9 -22 -19 -42 -11 -21 -17 -38 -13 -38 4 0
2 -6 -3 -12 -9 -11 -53 -147 -54 -163 0 -2 -6 -20 -15 -40 -8 -19 -12 -35 -10
-35 3 0 -2 -16 -10 -35 -8 -19 -12 -35 -9 -35 2 0 0 -12 -6 -27 -6 -16 -13
-37 -15 -48 -2 -11 -6 -29 -8 -40 -36 -155 -57 -257 -60 -290 -2 -23 -6 -54
-10 -70 -9 -45 -14 -83 -21 -155 -3 -36 -9 -83 -12 -105 -4 -22 -8 -1767 -10
-3878 l-3 -3838 1462 4 c805 3 1483 7 1508 10 25 2 79 7 120 11 41 4 93 9 115
11 92 12 118 15 144 19 14 3 46 7 71 10 25 3 56 8 70 11 13 2 42 8 65 11 70
11 79 13 105 18 14 3 36 8 50 11 72 14 95 19 100 20 101 26 227 57 240 60 28
6 225 64 280 83 30 11 58 20 62 21 28 6 267 95 358 133 94 39 108 45 205 88
50 22 268 131 355 177 47 25 49 26 137 81 30 17 55 32 57 32 2 0 37 21 78 46
40 25 86 54 101 63 16 9 41 26 55 38 15 13 31 23 35 23 5 0 35 20 67 45 32 25
61 45 64 45 3 0 14 6 23 14 10 8 50 38 88 67 39 29 72 56 73 61 2 4 8 8 14 8
6 0 21 11 34 25 13 14 26 25 30 25 16 0 434 376 498 447 6 7 43 46 81 86 39
40 95 102 125 137 30 35 60 68 65 74 33 35 162 196 229 286 43 58 84 108 90
112 6 4 7 8 2 8 -5 0 -1 10 10 22 11 13 43 57 70 98 27 41 54 80 61 87 6 7 15
22 18 33 3 11 11 20 16 20 5 0 8 3 7 8 -1 4 14 33 35 65 20 31 37 60 37 64 0
3 6 14 14 22 8 9 38 61 67 116 29 55 55 102 58 105 5 4 82 157 86 170 1 3 23
50 49 105 58 122 58 122 96 215 50 120 143 371 155 420 1 3 4 12 8 20 12 32
32 96 33 110 1 8 9 35 17 60 13 37 33 111 63 230 20 84 54 241 59 276 2 11 8
45 14 75 6 30 13 68 15 84 12 75 15 93 21 140 4 28 9 64 11 80 9 65 19 172 32
335 9 124 9 2202 0 2300 -4 41 -10 95 -12 120 -6 66 -18 162 -22 185 -2 10 -6
35 -9 55 -6 38 -62 304 -70 333 -5 18 -9 32 -20 82 -4 17 -10 39 -15 50 -6 16
-28 86 -36 118 -1 4 -2 8 -4 10 -1 1 -3 10 -5 19 -2 10 -17 54 -34 99 -17 44
-31 87 -31 95 0 8 -5 14 -12 14 -6 0 -8 3 -5 7 4 3 2 12 -4 20 -6 7 -9 13 -6
13 3 0 -17 51 -44 113 -28 61 -55 124 -62 140 -6 15 -15 27 -19 27 -5 0 -8 6
-8 13 0 18 -106 215 -184 341 -117 188 -179 276 -312 441 -105 130 -149 178
-289 319 -172 172 -272 260 -444 390 -126 95 -436 298 -436 285 0 -2 -14 6
-30 17 -44 32 -315 166 -420 208 -49 20 -99 40 -110 45 -57 24 -140 53 -230
81 -55 17 -107 34 -115 37 -8 3 -22 7 -31 9 -8 2 -42 11 -75 20 -32 8 -68 17
-79 19 -11 2 -63 13 -115 25 -92 20 -107 23 -177 35 -86 14 -149 22 -239 31
-32 3 -77 8 -99 10 -46 6 -582 14 -587 9z"/>
</g>
</svg>
