<svg width="40" height="41" viewBox="0 0 40 41" fill="none" xmlns="http://www.w3.org/2000/svg">
<path d="M20.0002 10.5C20.9206 10.5 21.6668 11.2462 21.6668 12.1667V23.8333C21.6668 24.7538 20.9206 25.5 20.0002 25.5C19.0797 25.5 18.3335 24.7538 18.3335 23.8333V12.1667C18.3335 11.2462 19.0797 10.5 20.0002 10.5Z" fill="#3479FF"/>
<path d="M21.6668 28.8333C21.6668 29.7538 20.9206 30.5 20.0002 30.5C19.0797 30.5 18.3335 29.7538 18.3335 28.8333C18.3335 27.9129 19.0797 27.1667 20.0002 27.1667C20.9206 27.1667 21.6668 27.9129 21.6668 28.8333Z" fill="#3479FF"/>
<path fill-rule="evenodd" clip-rule="evenodd" d="M36.6668 20.5C36.6668 29.7048 29.2049 37.1667 20.0002 37.1667C10.7954 37.1667 3.3335 29.7048 3.3335 20.5C3.3335 11.2953 10.7954 3.83334 20.0002 3.83334C29.2049 3.83334 36.6668 11.2953 36.6668 20.5ZM33.3335 20.5C33.3335 27.8638 27.364 33.8333 20.0002 33.8333C12.6364 33.8333 6.66683 27.8638 6.66683 20.5C6.66683 13.1362 12.6364 7.16668 20.0002 7.16668C27.364 7.16668 33.3335 13.1362 33.3335 20.5Z" fill="#3479FF"/>
</svg>
