<svg width="10" height="10" viewBox="0 0 10 10" fill="none" xmlns="http://www.w3.org/2000/svg">
<path d="M9.13792 8.19514C9.39827 8.45549 9.39827 8.8776 9.13792 9.13795C8.87757 9.39829 8.45545 9.39829 8.1951 9.13795L4.99986 5.94275L1.80471 9.13796C1.54436 9.39831 1.12225 9.39831 0.861903 9.13797C0.601551 8.87762 0.601547 8.45551 0.861894 8.19516L4.05704 4.99995L0.861767 1.80473C0.601415 1.54438 0.601417 1.12227 0.861768 0.861926C1.12212 0.601578 1.54423 0.601577 1.80458 0.861925L4.99984 4.05714L8.19499 0.861937C8.45533 0.601585 8.87744 0.601582 9.13779 0.86193C9.39815 1.12228 9.39815 1.54439 9.1378 1.80474L5.94266 4.99994L9.13792 8.19514Z" fill="#B0B0B0"/>
</svg>
