<svg width="25" height="25" viewBox="0 0 25 25" fill="none" xmlns="http://www.w3.org/2000/svg">
<path d="M18.7071 17.2927C19.0976 17.6832 19.0976 18.3164 18.7071 18.7069C18.3166 19.0974 17.6834 19.0974 17.2929 18.7069L12.5 13.9141L7.70731 18.7069C7.31679 19.0975 6.68363 19.0975 6.2931 18.707C5.90257 18.3164 5.90256 17.6833 6.29309 17.2927L11.0858 12.4999L6.29289 7.70709C5.90237 7.31657 5.90237 6.68341 6.2929 6.29289C6.68342 5.90237 7.31659 5.90237 7.70712 6.29289L12.5 11.0857L17.2927 6.29291C17.6832 5.90238 18.3164 5.90238 18.7069 6.2929C19.0975 6.68342 19.0975 7.31658 18.7069 7.70711L13.9142 12.4999L18.7071 17.2927Z" fill="#17163A"/>
</svg>
