<svg width="20" height="20" viewBox="0 0 20 20" fill="none" xmlns="http://www.w3.org/2000/svg">
<path d="M8.33342 8.12484C8.79365 8.12484 9.16675 8.49793 9.16675 8.95817V13.9582C9.16675 14.4184 8.79365 14.7915 8.33342 14.7915C7.87318 14.7915 7.50008 14.4184 7.50008 13.9582V8.95817C7.50008 8.49793 7.87318 8.12484 8.33342 8.12484Z" fill="#F34648"/>
<path d="M12.5001 8.95817C12.5001 8.49793 12.127 8.12484 11.6667 8.12484C11.2065 8.12484 10.8334 8.49793 10.8334 8.95817V13.9582C10.8334 14.4184 11.2065 14.7915 11.6667 14.7915C12.127 14.7915 12.5001 14.4184 12.5001 13.9582V8.95817Z" fill="#F34648"/>
<path fill-rule="evenodd" clip-rule="evenodd" d="M15.0001 4.99984V4.1665C15.0001 2.78579 13.8808 1.6665 12.5001 1.6665H7.50008C6.11937 1.6665 5.00008 2.78579 5.00008 4.1665V4.99984H3.75008C3.28984 4.99984 2.91675 5.37293 2.91675 5.83317C2.91675 6.29341 3.28984 6.6665 3.75008 6.6665H4.16675V15.8332C4.16675 17.2139 5.28604 18.3332 6.66675 18.3332H13.3334C14.7141 18.3332 15.8334 17.2139 15.8334 15.8332V6.6665H16.2501C16.7103 6.6665 17.0834 6.29341 17.0834 5.83317C17.0834 5.37293 16.7103 4.99984 16.2501 4.99984H15.0001ZM12.5001 3.33317H7.50008C7.03984 3.33317 6.66675 3.70627 6.66675 4.1665V4.99984H13.3334V4.1665C13.3334 3.70627 12.9603 3.33317 12.5001 3.33317ZM14.1667 6.6665H5.83341V15.8332C5.83341 16.2934 6.20651 16.6665 6.66675 16.6665H13.3334C13.7937 16.6665 14.1667 16.2934 14.1667 15.8332V6.6665Z" fill="#F34648"/>
</svg>
