<svg width="150" height="150" viewBox="0 0 150 150" fill="none" xmlns="http://www.w3.org/2000/svg">
<circle cx="75" cy="75" r="75" fill="#D9D9D9"/>
<path d="M75.0001 64.5833C77.3013 64.5833 79.1668 66.4488 79.1668 68.75V75H85.4168C87.7179 75 89.5834 76.8655 89.5834 79.1667C89.5834 81.4678 87.7179 83.3333 85.4168 83.3333H79.1668V89.5833C79.1668 91.8845 77.3013 93.75 75.0001 93.75C72.6989 93.75 70.8334 91.8845 70.8334 89.5833V83.3333H64.5834C62.2822 83.3333 60.4167 81.4678 60.4167 79.1667C60.4167 76.8655 62.2822 75 64.5834 75H70.8334V68.75C70.8334 66.4488 72.6989 64.5833 75.0001 64.5833Z" fill="white"/>
<path fill-rule="evenodd" clip-rule="evenodd" d="M41.6667 45.8333C41.6667 38.9298 47.2632 33.3333 54.1667 33.3333H86.4891C89.8043 33.3333 92.9837 34.6503 95.3279 36.9945L104.672 46.3388C107.016 48.683 108.333 51.8625 108.333 55.1777V104.167C108.333 111.07 102.737 116.667 95.8334 116.667H54.1667C47.2632 116.667 41.6667 111.07 41.6667 104.167V45.8333ZM83.3334 41.6667H54.1667C51.8656 41.6667 50.0001 43.5321 50.0001 45.8333V104.167C50.0001 106.468 51.8656 108.333 54.1667 108.333H95.8334C98.1346 108.333 100 106.468 100 104.167V58.3333H87.9168C85.3855 58.3333 83.3334 56.2813 83.3334 53.75V41.6667ZM96.5483 50L91.6668 45.1184V50H96.5483Z" fill="white"/>
</svg>
