<svg width="34" height="35" viewBox="0 0 34 35" fill="none" xmlns="http://www.w3.org/2000/svg">
<path d="M17.0002 7.50001C17.9206 7.50001 18.6668 8.2462 18.6668 9.16668V20.8333C18.6668 21.7538 17.9206 22.5 17.0002 22.5C16.0797 22.5 15.3335 21.7538 15.3335 20.8333V9.16668C15.3335 8.2462 16.0797 7.50001 17.0002 7.50001Z" fill="#3479FF"/>
<path d="M18.6668 25.8333C18.6668 26.7538 17.9206 27.5 17.0002 27.5C16.0797 27.5 15.3335 26.7538 15.3335 25.8333C15.3335 24.9129 16.0797 24.1667 17.0002 24.1667C17.9206 24.1667 18.6668 24.9129 18.6668 25.8333Z" fill="#3479FF"/>
<path fill-rule="evenodd" clip-rule="evenodd" d="M33.6668 17.5C33.6668 26.7048 26.2049 34.1667 17.0002 34.1667C7.79542 34.1667 0.333496 26.7048 0.333496 17.5C0.333496 8.29526 7.79542 0.833344 17.0002 0.833344C26.2049 0.833344 33.6668 8.29526 33.6668 17.5ZM30.3335 17.5C30.3335 24.8638 24.364 30.8333 17.0002 30.8333C9.63637 30.8333 3.66683 24.8638 3.66683 17.5C3.66683 10.1362 9.63637 4.16668 17.0002 4.16668C24.364 4.16668 30.3335 10.1362 30.3335 17.5Z" fill="#3479FF"/>
</svg>
